<?xml version="1.0" standalone="no"?><!DOCTYPE svg PUBLIC "-//W3C//DTD SVG 1.1//EN" "http://www.w3.org/Graphics/SVG/1.1/DTD/svg11.dtd"><svg height="1024" node-id="1" sillyvg="true" template-height="1024" template-width="7625" version="1.1" viewBox="0 0 7625 1024" width="7625" xmlns="http://www.w3.org/2000/svg" xmlns:xlink="http://www.w3.org/1999/xlink"><defs node-id="165"></defs><g node-id="167"><g node-id="168"><path d="M 57.24 457.89 L 600.97 457.89 L 586.67 586.67 L 57.24 586.67 Z" fill="#f3f3f3" fill-rule="evenodd" group-id="1,2" id="矩形备份-7" node-id="7" stroke="none" target-height="128.77997" target-width="543.73" target-x="57.24" target-y="457.89"></path><path d="M 0.00 715.45 L 600.97 715.45 L 586.67 844.23 L 0.00 844.23 Z" fill="#e6e6e7" fill-rule="evenodd" group-id="1,2" id="矩形备份-8" node-id="8" stroke="none" target-height="128.77997" target-width="600.97" target-x="0" target-y="715.45"></path><g node-id="184"><path d="M 858.53 457.89 L 858.53 794.43 L 845.37 910.05 L 845.37 587.24 Z" fill="#707070" fill-rule="evenodd" group-id="1,2,18" id="矩形" node-id="10" stroke="none" target-height="452.15997" target-width="13.160034" target-x="845.37" target-y="457.89"></path><path d="M 602.12 457.89 L 858.53 457.89 L 845.37 587.24 L 586.67 589.53 Z" fill="#f3f3f3" fill-rule="evenodd" group-id="1,2,18" id="矩形" node-id="11" stroke="none" target-height="131.64001" target-width="271.86005" target-x="586.67" target-y="457.89"></path><path d="M 586.67 589.53 L 845.37 587.24 L 845.37 910.05 L 586.67 910.05 Z" fill="#e2e2e2" fill-rule="evenodd" group-id="1,2,18" id="矩形备份" node-id="12" stroke="none" target-height="322.81" target-width="258.7" target-x="586.67" target-y="587.24"></path></g><path d="M 858.53 456.75 L 59.28 454.48" fill="none" group-id="1,2" id="路径-8" node-id="13" stroke="#02ffe7" stroke-linecap="butt" stroke-width="1" target-height="2.269989" target-width="799.25" target-x="59.28" target-y="454.48"></path><path d="M 600.97 586.67 L 57.24 586.67 L 57.24 915.77" fill="none" group-id="1,2" id="路径-8" node-id="14" stroke="#02ffe7" stroke-linecap="butt" stroke-width="1" target-height="329.10004" target-width="543.73" target-x="57.24" target-y="586.67"></path><path d="M 815.61 243.25 L 815.61 472.19" fill="none" group-id="1,2" id="路径-15备份-3" node-id="15" stroke="#ececec" stroke-linecap="butt" stroke-width="1" target-height="228.94" target-width="0" target-x="815.61" target-y="243.25"></path><path d="M 783.30 329.10 L 783.30 586.67" fill="none" group-id="1,2,19" id="路径-15备份-2" node-id="17" stroke="#f6f6f6" stroke-linecap="butt" stroke-width="1" target-height="257.56998" target-width="0" target-x="783.3" target-y="329.1"></path><path d="M 782.91 361.67 L 782.91 379.69" fill="none" group-id="1,2,19" id="路径-15备份-2" node-id="18" stroke="#26ff16" stroke-linecap="butt" stroke-width="1" target-height="18.019989" target-width="0" target-x="782.91" target-y="361.67"></path><path d="M 782.91 390.29 L 782.91 408.30" fill="none" group-id="1,2,19" id="路径-15备份-4" node-id="19" stroke="#ffbe16" stroke-linecap="butt" stroke-width="1" target-height="18.00998" target-width="0" target-x="782.91" target-y="390.29"></path><path d="M 782.91 418.91 L 782.91 436.92" fill="none" group-id="1,2,19" id="路径-15备份-5" node-id="20" stroke="#ff1616" stroke-linecap="butt" stroke-width="1" target-height="18.01001" target-width="0" target-x="782.91" target-y="418.91"></path><path d="M 782.86 228.94 L 858.53 228.94 L 858.53 228.94 L 845.37 358.30 L 767.40 359.53 L 762.58 359.41 L 757.92 358.91 L 753.41 358.07 L 749.02 356.87 L 743.33 354.73 L 737.99 352.08 L 732.97 348.88 L 728.29 345.20 L 724.05 341.08 L 720.21 336.53 L 716.86 331.60 L 714.03 326.35 L 711.72 320.74 L 710.38 316.39 L 709.39 311.90 L 708.76 307.26 L 708.48 302.45 L 708.54 298.60 L 708.86 294.76 L 709.75 289.15 L 711.00 283.74 L 712.63 278.53 L 714.62 273.51 L 716.99 268.62 L 719.66 263.98 L 722.64 259.57 L 725.93 255.38 L 729.52 251.43 L 733.34 247.78 L 737.42 244.40 L 741.76 241.30 L 746.30 238.52 L 751.03 236.08 L 755.95 233.96 L 761.08 232.18 L 766.31 230.79 L 771.67 229.78 L 777.18 229.16 L 782.86 228.94 Z" fill="#f3f3f3" fill-rule="evenodd" group-id="1,2" id="矩形" node-id="21" stroke="none" target-height="130.59" target-width="150.05005" target-x="708.48" target-y="228.94"></path></g><g node-id="169"><path d="M 7566.92 405.19 L 7023.18 405.19 L 7037.49 533.97 L 7566.92 533.97 Z" fill="#f3f3f3" fill-rule="evenodd" group-id="1,3" id="矩形备份-7" node-id="23" stroke="none" target-height="128.77997" target-width="543.73975" target-x="7023.18" target-y="405.19"></path><path d="M 7624.15 662.75 L 7023.18 662.75 L 7037.49 791.53 L 7624.15 791.53 Z" fill="#e6e6e7" fill-rule="evenodd" group-id="1,3" id="矩形备份-8" node-id="24" stroke="none" target-height="128.78003" target-width="600.9697" target-x="7023.18" target-y="662.75"></path><path d="M 7008.19 401.79 L 7568.05 401.79" fill="none" group-id="1,3" id="路径-8" node-id="25" stroke="#02ffe7" stroke-linecap="butt" stroke-width="1" target-height="0" target-width="559.85986" target-x="7008.19" target-y="401.79"></path><path d="M 7023.18 533.97 L 7566.92 533.97 L 7566.92 863.08" fill="none" group-id="1,3" id="路径-8" node-id="26" stroke="#02ffe7" stroke-linecap="butt" stroke-width="1" target-height="329.11005" target-width="543.73975" target-x="7023.18" target-y="533.97"></path></g><g node-id="170"><path d="M 973.01 572.36 L 973.01 794.43 L 959.84 910.05 L 959.84 587.24 Z" fill="#868686" fill-rule="evenodd" group-id="1,4" id="矩形" node-id="28" stroke="none" target-height="337.69" target-width="13.169983" target-x="959.84" target-y="572.36"></path><path d="M 853.78 529.43 L 1259.18 529.43 L 1244.88 586.67 L 844.23 586.67 Z" fill="#e0e1e0" fill-rule="evenodd" group-id="1,4" id="矩形备份-9" node-id="29" stroke="none" target-height="57.23999" target-width="414.95007" target-x="844.23" target-y="529.43"></path><path d="M 968.25 672.52 L 1201.95 672.52 L 1187.64 729.75 L 958.70 729.75 Z" fill="#e0e1e0" fill-rule="evenodd" group-id="1,4" id="矩形备份-11" node-id="30" stroke="none" target-height="57.22998" target-width="243.24994" target-x="958.7" target-y="672.52"></path><path d="M 882.40 558.05 L 1287.80 558.05 L 1273.49 600.97 L 872.84 600.97 Z" fill="#1ffe18" fill-rule="evenodd" group-id="1,4" id="矩形备份-10" node-id="31" stroke="none" target-height="42.919983" target-width="414.96002" target-x="872.84" target-y="558.05"></path></g><g node-id="171"><path d="M 1659.83 143.09 L 1659.83 603.95 L 1614.50 944.96 L 1614.50 672.52 L 1603.33 497.98 L 1603.14 490.34 L 1603.52 482.74 L 1604.49 475.16 L 1659.83 143.09 L 1659.83 143.09 Z" fill="#707070" fill-rule="evenodd" group-id="1,5" id="矩形" node-id="33" stroke="none" target-height="801.87" target-width="56.68994" target-x="1603.14" target-y="143.09"></path><path d="M 1236.75 143.09 L 1659.83 143.09 L 1631.22 343.41 L 1204.35 347.19 Z" fill="#f1eff2" fill-rule="evenodd" group-id="1,5" id="矩形" node-id="34" stroke="none" target-height="204.1" target-width="455.47998" target-x="1204.35" target-y="143.09"></path><g node-id="186"><g node-id="191"><path d="M 1574.98 168.03 L 1630.22 168.03 L 1630.92 168.32 L 1631.22 169.03 L 1631.22 181.80 L 1630.92 182.51 L 1630.22 182.80 L 1574.98 182.80 L 1574.27 182.51 L 1573.98 181.80 L 1573.98 169.03 L 1574.27 168.32 L 1574.98 168.03 Z" fill="#5b5b5a" fill-opacity="0.41043383" fill-rule="evenodd" group-id="1,5,20,25" id="矩形备份-33" node-id="36" stroke="none" target-height="14.770004" target-width="57.23999" target-x="1573.98" target-y="168.03"></path></g><path d="M 1588.29 32.32 L 1616.91 32.32 L 1616.91 175.41 L 1588.29 175.41 Z" fill="#c4e4e3" fill-rule="evenodd" group-id="1,5,20" id="矩形" node-id="37" stroke="none" target-height="143.09" target-width="28.619995" target-x="1588.29" target-y="32.32"></path><path d="M 1602.60 0.00 L 1605.21 0.24 L 1607.60 0.90 L 1609.82 1.95 L 1611.83 3.38 L 1613.53 5.08 L 1614.95 7.09 L 1616.01 9.30 L 1616.66 11.70 L 1616.91 14.31 L 1616.91 22.16 L 1616.91 22.16 L 1588.29 22.16 L 1588.29 14.31 L 1588.53 11.70 L 1589.18 9.30 L 1590.24 7.09 L 1591.66 5.08 L 1593.37 3.38 L 1595.38 1.95 L 1597.59 0.90 L 1599.99 0.24 L 1602.60 0.00 Z" fill="#ffee54" fill-rule="evenodd" group-id="1,5,20" id="矩形备份-30" node-id="38" stroke="none" target-height="22.16" target-width="28.619995" target-x="1588.29" target-y="0"></path><path d="M 1588.29 72.01 L 1616.91 72.01 L 1616.91 86.78 L 1588.29 86.78 Z" fill="#73ff54" fill-rule="evenodd" group-id="1,5,20" id="矩形备份-31" node-id="39" stroke="none" target-height="14.769997" target-width="28.619995" target-x="1588.29" target-y="72.01"></path><path d="M 1588.29 86.78 L 1616.91 86.78 L 1616.91 101.55 L 1588.29 101.55 Z" fill="#5b5b5a" fill-rule="evenodd" group-id="1,5,20" id="矩形备份-32" node-id="40" stroke="none" target-height="14.770004" target-width="28.619995" target-x="1588.29" target-y="86.78"></path></g><path d="M 1201.95 343.41 L 1631.22 343.41 L 1616.91 600.97 L 1190.04 604.75 Z" fill="#000000" fill-rule="evenodd" group-id="1,5" id="矩形备份-12" node-id="41" stroke="none" target-height="261.34" target-width="441.17993" target-x="1190.04" target-y="343.41"></path><path d="M 1273.52 388.23 L 1555.56 388.23 L 1546.16 557.45 L 1265.70 559.94 Z" fill="#e9efff" fill-rule="evenodd" group-id="1,5" id="矩形备份-12" node-id="42" stroke="none" target-height="171.70999" target-width="289.8601" target-x="1265.7" target-y="388.23"></path><path d="M 1190.04 600.97 L 1616.91 600.97 L 1614.50 944.96 L 1187.64 944.96 Z" fill="#e2e2e2" fill-rule="evenodd" group-id="1,5" id="矩形备份" node-id="43" stroke="none" target-height="343.99005" target-width="429.27002" target-x="1187.64" target-y="600.97"></path><path d="M 1208.42 628.06 L 1273.92 628.06 L 1273.55 654.41 L 1208.05 654.41 Z" fill="#3a72de" fill-rule="evenodd" group-id="1,5" id="矩形备份" node-id="44" stroke="none" target-height="26.349976" target-width="65.869995" target-x="1208.05" target-y="628.06"></path><path d="M 1287.24 628.06 L 1313.44 628.06 L 1313.29 654.41 L 1287.09 654.41 Z" fill="#3a72de" fill-rule="evenodd" group-id="1,5" id="矩形备份-13" node-id="45" stroke="none" target-height="26.349976" target-width="26.349976" target-x="1287.09" target-y="628.06"></path><path d="M 1326.76 628.06 L 1352.96 628.06 L 1352.81 654.41 L 1326.61 654.41 Z" fill="#3a72de" fill-rule="evenodd" group-id="1,5" id="矩形备份-14" node-id="46" stroke="none" target-height="26.349976" target-width="26.349976" target-x="1326.61" target-y="628.06"></path></g><g node-id="172"><path d="M 1776.58 559.18 L 1776.58 781.26 L 1763.41 896.87 L 1763.41 574.06 Z" fill="#868686" fill-rule="evenodd" group-id="1,6" id="矩形" node-id="48" stroke="none" target-height="337.69" target-width="13.169922" target-x="1763.41" target-y="559.18"></path><path d="M 1649.63 414.96 L 2055.03 414.96 L 2022.10 573.49 L 1621.45 573.49 Z" fill="#dde8f8" fill-rule="evenodd" group-id="1,6" id="矩形备份-9" node-id="49" stroke="none" target-height="158.53" target-width="433.58008" target-x="1621.45" target-y="414.96"></path><path d="M 1771.82 659.35 L 2005.52 659.35 L 1991.21 716.58 L 1762.27 716.58 Z" fill="#e0e1e0" fill-rule="evenodd" group-id="1,6" id="矩形备份-11" node-id="50" stroke="none" target-height="57.23004" target-width="243.25" target-x="1762.27" target-y="659.35"></path><path d="M 1633.27 531.70 L 2038.68 531.70 L 2024.37 574.63 L 1623.72 574.63 Z" fill="#1ffe18" fill-rule="evenodd" group-id="1,6" id="矩形备份-10" node-id="51" stroke="none" target-height="42.929993" target-width="414.96008" target-x="1623.72" target-y="531.7"></path><path d="M 1646.45 465.83 L 2051.85 465.83 L 2037.54 508.76 L 1636.89 508.76 Z" fill="#ffffff" fill-rule="evenodd" group-id="1,6" id="矩形备份-15" node-id="52" stroke="none" target-height="42.930023" target-width="414.96008" target-x="1636.89" target-y="465.83"></path></g><g node-id="173"><path d="M 3583.13 204.19 L 3583.13 617.12 L 3530.44 958.13 L 3530.44 553.28 L 3543.61 520.34 L 3543.61 401.79 L 3555.77 324.78 L 3575.51 203.20 Z" fill="#707070" fill-rule="evenodd" group-id="1,7" id="矩形" node-id="54" stroke="none" target-height="754.93" target-width="52.68994" target-x="3530.44" target-y="203.2"></path><path d="M 2013.97 195.78 L 3576.55 202.37 L 3556.79 316.16 L 1990.43 313.35 Z" fill="#f6f6f6" fill-rule="evenodd" group-id="1,7" id="矩形" node-id="55" stroke="none" target-height="120.380005" target-width="1586.12" target-x="1990.43" target-y="195.78"></path><path d="M 2013.97 195.78 L 2134.07 195.78 L 2114.31 309.57 L 1990.43 313.35 Z" fill="#239ed2" fill-rule="evenodd" group-id="1,7" id="矩形" node-id="56" stroke="none" target-height="117.57001" target-width="143.64001" target-x="1990.43" target-y="195.78"></path><path d="M 3461.76 202.37 L 3576.55 202.37 L 3556.79 316.16 L 3438.23 316.16 Z" fill="#239ed2" fill-rule="evenodd" group-id="1,7" id="矩形备份-20" node-id="57" stroke="none" target-height="113.79001" target-width="138.32007" target-x="3438.23" target-y="202.37"></path><path d="M 2710.89 198.59 L 2799.32 197.60 L 2779.56 316.16 L 2687.35 316.16 Z" fill="#239ed2" fill-rule="evenodd" group-id="1,7" id="矩形备份-21" node-id="58" stroke="none" target-height="118.56" target-width="111.96997" target-x="2687.35" target-y="197.6"></path><path d="M 1989.17 309.57 L 3556.79 316.16 L 3543.61 395.20 L 1975.99 395.20 Z" fill="#ffffff" fill-rule="evenodd" group-id="1,7" id="矩形备份-12" node-id="59" stroke="none" target-height="85.630005" target-width="1580.8" target-x="1975.99" target-y="309.57"></path><path d="M 1975.99 507.17 L 3543.61 520.34 L 3530.44 553.28 L 1962.82 553.28 Z" fill="#ffffff" fill-rule="evenodd" group-id="1,7" id="矩形备份-19" node-id="60" stroke="none" target-height="46.110016" target-width="1580.7902" target-x="1962.82" target-y="507.17"></path><path d="M 1975.99 388.61 L 3543.61 395.20 L 3543.61 520.34 L 1975.99 520.34 Z" fill="#e2e2e2" fill-rule="evenodd" group-id="1,7" id="矩形备份-18" node-id="61" stroke="none" target-height="131.73004" target-width="1567.6201" target-x="1975.99" target-y="388.61"></path><path d="M 1962.82 553.28 L 3528.03 550.21 L 3530.07 941.89 L 1964.86 944.96 Z" fill="#e2e2e2" fill-rule="evenodd" group-id="1,7" id="矩形备份" node-id="62" stroke="none" target-height="394.75" target-width="1567.2501" target-x="1962.82" target-y="550.21"></path><path d="M 1962.82 853.46 L 3528.03 852.75 L 3530.07 944.24 L 1964.86 944.96 Z" fill="#d3d5d7" fill-rule="evenodd" group-id="1,7" id="矩形备份" node-id="63" stroke="none" target-height="92.21002" target-width="1567.2501" target-x="1962.82" target-y="852.75"></path><path d="M 1985.64 628.06 L 2051.14 628.06 L 2050.77 654.41 L 1985.27 654.41 Z" fill="#3a72de" fill-rule="evenodd" group-id="1,7" id="矩形备份" node-id="64" stroke="none" target-height="26.349976" target-width="65.86987" target-x="1985.27" target-y="628.06"></path><path d="M 2064.46 628.06 L 2090.66 628.06 L 2090.51 654.41 L 2064.31 654.41 Z" fill="#3a72de" fill-rule="evenodd" group-id="1,7" id="矩形备份-13" node-id="65" stroke="none" target-height="26.349976" target-width="26.349854" target-x="2064.31" target-y="628.06"></path><path d="M 2103.98 628.06 L 2130.18 628.06 L 2130.03 654.41 L 2103.83 654.41 Z" fill="#3a72de" fill-rule="evenodd" group-id="1,7" id="矩形备份-14" node-id="66" stroke="none" target-height="26.349976" target-width="26.349854" target-x="2103.83" target-y="628.06"></path></g><g node-id="174"><path d="M 3699.87 559.18 L 3699.87 781.26 L 3686.71 896.87 L 3686.71 574.06 Z" fill="#868686" fill-rule="evenodd" group-id="1,8" id="矩形" node-id="68" stroke="none" target-height="337.69" target-width="13.160156" target-x="3686.71" target-y="559.18"></path><path d="M 3572.92 414.96 L 3978.33 414.96 L 3945.40 573.49 L 3544.75 573.49 Z" fill="#dde8f8" fill-rule="evenodd" group-id="1,8" id="矩形备份-9" node-id="69" stroke="none" target-height="158.53" target-width="433.58008" target-x="3544.75" target-y="414.96"></path><path d="M 3695.12 659.35 L 3928.82 659.35 L 3914.51 716.58 L 3685.57 716.58 Z" fill="#e0e1e0" fill-rule="evenodd" group-id="1,8" id="矩形备份-11" node-id="70" stroke="none" target-height="57.23004" target-width="243.25" target-x="3685.57" target-y="659.35"></path><path d="M 3556.57 531.70 L 3961.98 531.70 L 3947.67 574.63 L 3547.02 574.63 Z" fill="#1ffe18" fill-rule="evenodd" group-id="1,8" id="矩形备份-10" node-id="71" stroke="none" target-height="42.929993" target-width="414.95996" target-x="3547.02" target-y="531.7"></path><path d="M 3569.74 465.83 L 3975.15 465.83 L 3960.84 508.76 L 3560.19 508.76 Z" fill="#ffffff" fill-rule="evenodd" group-id="1,8" id="矩形备份-15" node-id="72" stroke="none" target-height="42.930023" target-width="414.95996" target-x="3560.19" target-y="465.83"></path></g><g node-id="175"><path d="M 4241.80 210.98 L 4241.80 671.84 L 4209.64 944.96 L 4209.64 672.52 L 4198.45 497.65 L 4198.25 490.23 L 4198.60 482.84 L 4199.50 475.47 L 4241.80 210.98 L 4241.80 210.98 Z" fill="#707070" fill-rule="evenodd" group-id="1,9" id="矩形" node-id="74" stroke="none" target-height="733.98004" target-width="43.549805" target-x="4198.25" target-y="210.98"></path><path d="M 3818.71 222.13 L 4241.80 222.13 L 4213.18 422.45 L 3786.32 426.23 Z" fill="#f1eff2" fill-rule="evenodd" group-id="1,9" id="矩形" node-id="75" stroke="none" target-height="204.1" target-width="455.47974" target-x="3786.32" target-y="222.13"></path><g node-id="187"><g node-id="192"><path d="M 4143.77 247.07 L 4199.01 247.07 L 4199.71 247.36 L 4200.01 248.07 L 4200.01 260.84 L 4199.71 261.55 L 4199.01 261.84 L 4143.77 261.84 L 4143.06 261.55 L 4142.77 260.84 L 4142.77 248.07 L 4143.06 247.36 L 4143.77 247.07 Z" fill="#5b5b5a" fill-opacity="0.41043383" fill-rule="evenodd" group-id="1,9,21,26" id="矩形备份-33" node-id="77" stroke="none" target-height="14.769989" target-width="57.239746" target-x="4142.77" target-y="247.07"></path></g><path d="M 4157.08 111.36 L 4185.70 111.36 L 4185.70 254.45 L 4157.08 254.45 Z" fill="#c4e4e3" fill-rule="evenodd" group-id="1,9,21" id="矩形" node-id="78" stroke="none" target-height="143.09" target-width="28.620117" target-x="4157.08" target-y="111.36"></path><path d="M 4171.39 79.04 L 4174.00 79.28 L 4176.39 79.94 L 4178.61 80.99 L 4180.62 82.42 L 4182.32 84.12 L 4183.74 86.13 L 4184.80 88.34 L 4185.45 90.74 L 4185.70 93.35 L 4185.70 101.20 L 4185.70 101.20 L 4157.08 101.20 L 4157.08 93.35 L 4157.32 90.74 L 4157.97 88.34 L 4159.03 86.13 L 4160.45 84.12 L 4162.16 82.42 L 4164.17 80.99 L 4166.38 79.94 L 4168.78 79.28 L 4171.39 79.04 Z" fill="#ffee54" fill-rule="evenodd" group-id="1,9,21" id="矩形备份-30" node-id="79" stroke="none" target-height="22.159996" target-width="28.620117" target-x="4157.08" target-y="79.04"></path><path d="M 4157.08 151.05 L 4185.70 151.05 L 4185.70 165.82 L 4157.08 165.82 Z" fill="#73ff54" fill-rule="evenodd" group-id="1,9,21" id="矩形备份-31" node-id="80" stroke="none" target-height="14.770004" target-width="28.620117" target-x="4157.08" target-y="151.05"></path><path d="M 4157.08 165.82 L 4185.70 165.82 L 4185.70 180.59 L 4157.08 180.59 Z" fill="#5b5b5a" fill-rule="evenodd" group-id="1,9,21" id="矩形备份-32" node-id="81" stroke="none" target-height="14.769989" target-width="28.620117" target-x="4157.08" target-y="165.82"></path></g><path d="M 3782.00 421.54 L 4208.86 421.54 L 4209.64 944.96 L 3782.78 944.96 Z" fill="#e2e2e2" fill-rule="evenodd" group-id="1,9" id="矩形备份" node-id="82" stroke="none" target-height="523.42004" target-width="427.64014" target-x="3782" target-y="421.54"></path><path d="M 3829.90 680.75 L 3895.40 680.75 L 3895.03 707.10 L 3829.53 707.10 Z" fill="#2f2f2f" fill-rule="evenodd" group-id="1,9" id="矩形备份" node-id="83" stroke="none" target-height="26.349976" target-width="65.86987" target-x="3829.53" target-y="680.75"></path><path d="M 3831.30 456.81 L 4145.69 456.81 L 4143.92 654.41 L 3829.53 654.41 Z" fill="#1215a9" fill-rule="evenodd" group-id="1,9" id="矩形备份-22" node-id="84" stroke="none" target-height="197.59998" target-width="316.1599" target-x="3829.53" target-y="456.81"></path><path d="M 4119.49 680.75 L 4145.69 680.75 L 4145.54 707.10 L 4119.34 707.10 Z" fill="#000000" fill-rule="evenodd" group-id="1,9" id="矩形备份-14" node-id="85" stroke="none" target-height="26.349976" target-width="26.350098" target-x="4119.34" target-y="680.75"></path></g><g node-id="176"><path d="M 4371.71 559.18 L 4371.71 781.26 L 4358.55 896.87 L 4358.55 574.06 Z" fill="#868686" fill-rule="evenodd" group-id="1,10" id="矩形" node-id="87" stroke="none" target-height="337.69" target-width="13.160156" target-x="4358.55" target-y="559.18"></path><path d="M 4244.76 414.96 L 4650.17 414.96 L 4617.23 573.49 L 4216.59 573.49 Z" fill="#dde8f8" fill-rule="evenodd" group-id="1,10" id="矩形备份-9" node-id="88" stroke="none" target-height="158.53" target-width="433.58008" target-x="4216.59" target-y="414.96"></path><path d="M 4366.95 659.35 L 4600.65 659.35 L 4586.35 716.58 L 4357.40 716.58 Z" fill="#e0e1e0" fill-rule="evenodd" group-id="1,10" id="矩形备份-11" node-id="89" stroke="none" target-height="57.23004" target-width="243.25" target-x="4357.4" target-y="659.35"></path><path d="M 4228.41 531.70 L 4633.81 531.70 L 4619.51 574.63 L 4218.86 574.63 Z" fill="#1ffe18" fill-rule="evenodd" group-id="1,10" id="矩形备份-10" node-id="90" stroke="none" target-height="42.929993" target-width="414.9502" target-x="4218.86" target-y="531.7"></path><path d="M 4241.58 465.83 L 4646.99 465.83 L 4632.68 508.76 L 4232.03 508.76 Z" fill="#ffffff" fill-rule="evenodd" group-id="1,10" id="矩形备份-15" node-id="91" stroke="none" target-height="42.930023" target-width="414.96045" target-x="4232.03" target-y="465.83"></path><g node-id="188"><path d="M 4320.84 355.68 L 4465.74 355.68 L 4465.74 461.06 L 4320.84 461.06 Z" fill="#494a49" fill-rule="evenodd" group-id="1,10,22" id="矩形" node-id="93" stroke="none" target-height="105.380005" target-width="144.90039" target-x="4320.84" target-y="355.68"></path><path d="M 4320.84 342.51 L 4465.74 342.51 L 4465.74 355.68 L 4320.84 355.68 Z" fill="#000000" fill-rule="evenodd" group-id="1,10,22" id="矩形备份-23" node-id="94" stroke="none" target-height="13.169983" target-width="144.90039" target-x="4320.84" target-y="342.51"></path><path d="M 4386.70 461.06 L 4399.88 461.06 L 4399.88 513.76 L 4386.70 513.76 Z" fill="#000000" fill-rule="evenodd" group-id="1,10,22" id="矩形备份-46" node-id="95" stroke="none" target-height="52.700012" target-width="13.1796875" target-x="4386.7" target-y="461.06"></path><path d="M 4320.84 447.89 L 4465.74 447.89 L 4465.74 461.06 L 4320.84 461.06 Z" fill="#000000" fill-rule="evenodd" group-id="1,10,22" id="矩形备份-47" node-id="96" stroke="none" target-height="13.169983" target-width="144.90039" target-x="4320.84" target-y="447.89"></path><path d="M 4320.84 500.58 L 4465.74 500.58 L 4465.74 513.76 L 4320.84 513.76 Z" fill="#000000" fill-rule="evenodd" group-id="1,10,22" id="矩形备份-48" node-id="97" stroke="none" target-height="13.180023" target-width="144.90039" target-x="4320.84" target-y="500.58"></path></g></g><g node-id="177"><path d="M 5045.37 195.78 L 5045.37 656.64 L 5000.04 997.65 L 5000.04 725.21 L 4988.86 550.68 L 4988.67 543.03 L 4989.05 535.43 L 4990.02 527.85 L 5045.37 195.78 L 5045.37 195.78 Z" fill="#707070" fill-rule="evenodd" group-id="1,11" id="矩形" node-id="99" stroke="none" target-height="801.87" target-width="56.700195" target-x="4988.67" target-y="195.78"></path><path d="M 4622.28 195.78 L 5045.37 195.78 L 5016.75 396.11 L 4589.89 399.88 Z" fill="#f1eff2" fill-rule="evenodd" group-id="1,11" id="矩形" node-id="100" stroke="none" target-height="204.1" target-width="455.47998" target-x="4589.89" target-y="195.78"></path><g node-id="189"><g node-id="193"><path d="M 4960.51 220.72 L 5015.75 220.72 L 5016.46 221.01 L 5016.75 221.72 L 5016.75 234.49 L 5016.46 235.20 L 5015.75 235.49 L 4960.51 235.49 L 4959.81 235.20 L 4959.51 234.49 L 4959.51 221.72 L 4959.81 221.01 L 4960.51 220.72 Z" fill="#5b5b5a" fill-opacity="0.41043383" fill-rule="evenodd" group-id="1,11,23,27" id="矩形备份-33" node-id="102" stroke="none" target-height="14.770004" target-width="57.240234" target-x="4959.51" target-y="220.72"></path></g><path d="M 4973.82 85.02 L 5002.44 85.02 L 5002.44 228.11 L 4973.82 228.11 Z" fill="#c4e4e3" fill-rule="evenodd" group-id="1,11,23" id="矩形" node-id="103" stroke="none" target-height="143.09" target-width="28.620117" target-x="4973.82" target-y="85.02"></path><path d="M 4988.13 52.69 L 4990.74 52.94 L 4993.14 53.59 L 4995.35 54.65 L 4997.36 56.07 L 4999.06 57.77 L 5000.49 59.78 L 5001.54 62.00 L 5002.20 64.39 L 5002.44 67.00 L 5002.44 74.85 L 5002.44 74.85 L 4973.82 74.85 L 4973.82 67.00 L 4974.06 64.39 L 4974.72 62.00 L 4975.78 59.78 L 4977.20 57.77 L 4978.90 56.07 L 4980.91 54.65 L 4983.13 53.59 L 4985.52 52.94 L 4988.13 52.69 Z" fill="#ffee54" fill-rule="evenodd" group-id="1,11,23" id="矩形备份-30" node-id="104" stroke="none" target-height="22.16" target-width="28.620117" target-x="4973.82" target-y="52.69"></path><path d="M 4973.82 124.70 L 5002.44 124.70 L 5002.44 139.47 L 4973.82 139.47 Z" fill="#73ff54" fill-rule="evenodd" group-id="1,11,23" id="矩形备份-31" node-id="105" stroke="none" target-height="14.770004" target-width="28.620117" target-x="4973.82" target-y="124.7"></path><path d="M 4973.82 139.47 L 5002.44 139.47 L 5002.44 154.25 L 4973.82 154.25 Z" fill="#5b5b5a" fill-rule="evenodd" group-id="1,11,23" id="矩形备份-32" node-id="106" stroke="none" target-height="14.779999" target-width="28.620117" target-x="4973.82" target-y="139.47"></path></g><path d="M 4587.48 396.11 L 5016.75 396.11 L 5002.44 653.67 L 4575.58 657.44 Z" fill="#000000" fill-rule="evenodd" group-id="1,11" id="矩形备份-12" node-id="107" stroke="none" target-height="261.33002" target-width="441.16992" target-x="4575.58" target-y="396.11"></path><path d="M 4659.05 440.92 L 4941.09 440.92 L 4931.69 610.15 L 4651.23 612.63 Z" fill="#e9efff" fill-rule="evenodd" group-id="1,11" id="矩形备份-12" node-id="108" stroke="none" target-height="171.70999" target-width="289.85986" target-x="4651.23" target-y="440.92"></path><path d="M 4575.58 653.67 L 5002.44 653.67 L 5000.04 997.65 L 4573.17 997.65 Z" fill="#e2e2e2" fill-rule="evenodd" group-id="1,11" id="矩形备份" node-id="109" stroke="none" target-height="343.98004" target-width="429.27002" target-x="4573.17" target-y="653.67"></path><path d="M 4593.95 680.75 L 4659.45 680.75 L 4659.08 707.10 L 4593.58 707.10 Z" fill="#3a72de" fill-rule="evenodd" group-id="1,11" id="矩形备份" node-id="110" stroke="none" target-height="26.349976" target-width="65.87012" target-x="4593.58" target-y="680.75"></path><path d="M 4672.77 680.75 L 4698.97 680.75 L 4698.82 707.10 L 4672.62 707.10 Z" fill="#3a72de" fill-rule="evenodd" group-id="1,11" id="矩形备份-13" node-id="111" stroke="none" target-height="26.349976" target-width="26.350098" target-x="4672.62" target-y="680.75"></path><path d="M 4712.29 680.75 L 4738.49 680.75 L 4738.34 707.10 L 4712.14 707.10 Z" fill="#3a72de" fill-rule="evenodd" group-id="1,11" id="矩形备份-14" node-id="112" stroke="none" target-height="26.349976" target-width="26.350098" target-x="4712.14" target-y="680.75"></path></g><g node-id="178"><path d="M 5162.11 559.18 L 5162.11 781.26 L 5148.94 896.87 L 5148.94 574.06 Z" fill="#868686" fill-rule="evenodd" group-id="1,12" id="矩形" node-id="114" stroke="none" target-height="337.69" target-width="13.169922" target-x="5148.94" target-y="559.18"></path><path d="M 5035.16 414.96 L 5440.56 414.96 L 5407.63 573.49 L 5006.98 573.49 Z" fill="#dde8f8" fill-rule="evenodd" group-id="1,12" id="矩形备份-9" node-id="115" stroke="none" target-height="158.53" target-width="433.58008" target-x="5006.98" target-y="414.96"></path><path d="M 5157.35 659.35 L 5391.05 659.35 L 5376.74 716.58 L 5147.80 716.58 Z" fill="#e0e1e0" fill-rule="evenodd" group-id="1,12" id="矩形备份-11" node-id="116" stroke="none" target-height="57.23004" target-width="243.25" target-x="5147.8" target-y="659.35"></path><path d="M 5018.81 531.70 L 5424.21 531.70 L 5409.90 574.63 L 5009.25 574.63 Z" fill="#1ffe18" fill-rule="evenodd" group-id="1,12" id="矩形备份-10" node-id="117" stroke="none" target-height="42.929993" target-width="414.95996" target-x="5009.25" target-y="531.7"></path><path d="M 5031.98 465.83 L 5437.39 465.83 L 5423.08 508.76 L 5022.43 508.76 Z" fill="#ffffff" fill-rule="evenodd" group-id="1,12" id="矩形备份-15" node-id="118" stroke="none" target-height="42.930023" target-width="414.95996" target-x="5022.43" target-y="465.83"></path><g node-id="190"><path d="M 5111.23 355.68 L 5256.14 355.68 L 5256.14 461.06 L 5111.23 461.06 Z" fill="#494a49" fill-rule="evenodd" group-id="1,12,24" id="矩形" node-id="120" stroke="none" target-height="105.380005" target-width="144.91016" target-x="5111.23" target-y="355.68"></path><path d="M 5111.23 342.51 L 5256.14 342.51 L 5256.14 355.68 L 5111.23 355.68 Z" fill="#000000" fill-rule="evenodd" group-id="1,12,24" id="矩形备份-23" node-id="121" stroke="none" target-height="13.169983" target-width="144.91016" target-x="5111.23" target-y="342.51"></path><path d="M 5177.10 461.06 L 5190.27 461.06 L 5190.27 513.76 L 5177.10 513.76 Z" fill="#000000" fill-rule="evenodd" group-id="1,12,24" id="矩形备份-46" node-id="122" stroke="none" target-height="52.700012" target-width="13.169922" target-x="5177.1" target-y="461.06"></path><path d="M 5111.23 447.89 L 5256.14 447.89 L 5256.14 461.06 L 5111.23 461.06 Z" fill="#000000" fill-rule="evenodd" group-id="1,12,24" id="矩形备份-47" node-id="123" stroke="none" target-height="13.169983" target-width="144.91016" target-x="5111.23" target-y="447.89"></path><path d="M 5111.23 500.58 L 5256.14 500.58 L 5256.14 513.76 L 5111.23 513.76 Z" fill="#000000" fill-rule="evenodd" group-id="1,12,24" id="矩形备份-48" node-id="124" stroke="none" target-height="13.180023" target-width="144.91016" target-x="5111.23" target-y="500.58"></path></g></g><g node-id="179"><path d="M 5809.42 222.13 L 5809.42 682.99 L 5764.09 1024.00 L 5764.09 751.56 L 5764.09 565.54 L 5776.48 421.54 Z" fill="#707070" fill-rule="evenodd" group-id="1,13" id="矩形" node-id="126" stroke="none" target-height="801.87" target-width="45.33008" target-x="5764.09" target-y="222.13"></path><path d="M 5361.53 355.68 L 5789.66 355.68 L 5776.48 434.72 L 5349.62 438.50 Z" fill="#c2f2f2" fill-rule="evenodd" group-id="1,13" id="矩形备份-49" node-id="127" stroke="none" target-height="82.82001" target-width="440.04004" target-x="5349.62" target-y="355.68"></path><path d="M 5386.33 222.13 L 5809.42 222.13 L 5789.66 355.68 L 5362.79 359.46 Z" fill="#f1eff2" fill-rule="evenodd" group-id="1,13" id="矩形" node-id="128" stroke="none" target-height="137.32999" target-width="446.62988" target-x="5362.79" target-y="222.13"></path><path d="M 5781.53 222.13 L 5809.42 222.13 L 5783.07 421.54 L 5750.14 421.54 Z" fill="#bababa" fill-rule="evenodd" group-id="1,13" id="矩形" node-id="129" stroke="none" target-height="199.41" target-width="59.279785" target-x="5750.14" target-y="222.13"></path><path d="M 5386.33 222.13 L 5414.22 222.13 L 5381.28 421.54 L 5348.35 421.54 Z" fill="#bababa" fill-rule="evenodd" group-id="1,13" id="矩形备份-50" node-id="130" stroke="none" target-height="199.41" target-width="65.87012" target-x="5348.35" target-y="222.13"></path><path d="M 5351.53 422.45 L 5776.48 421.54 L 5763.31 573.04 L 5335.18 573.04 Z" fill="#d8ffff" fill-rule="evenodd" group-id="1,13" id="矩形备份-12" node-id="131" stroke="none" target-height="151.49997" target-width="441.2998" target-x="5335.18" target-y="421.54"></path><path d="M 5348.35 421.54 L 5381.28 421.54 L 5368.11 573.04 L 5335.18 573.04 Z" fill="#e5e5e5" fill-rule="evenodd" group-id="1,13" id="矩形备份-12" node-id="132" stroke="none" target-height="151.49997" target-width="46.09961" target-x="5335.18" target-y="421.54"></path><path d="M 5750.14 421.54 L 5783.07 421.54 L 5763.31 573.04 L 5730.38 573.04 Z" fill="#e5e5e5" fill-rule="evenodd" group-id="1,13" id="矩形备份-51" node-id="133" stroke="none" target-height="151.49997" target-width="52.68994" target-x="5730.38" target-y="421.54"></path><path d="M 5335.18 573.04 L 5763.31 573.04 L 5763.31 691.60 L 5335.18 685.01 Z" fill="#c2f2f2" fill-rule="evenodd" group-id="1,13" id="矩形备份-12" node-id="134" stroke="none" target-height="118.56" target-width="428.12988" target-x="5335.18" target-y="573.04"></path><path d="M 5335.18 678.42 L 5763.31 678.42 L 5764.09 1024.00 L 5335.18 1022.41 Z" fill="#e2e2e2" fill-rule="evenodd" group-id="1,13" id="矩形备份" node-id="135" stroke="none" target-height="345.58002" target-width="428.90967" target-x="5335.18" target-y="678.42"></path><path d="M 5335.18 566.45 L 5368.11 566.45 L 5368.11 678.42 L 5335.18 679.90 Z" fill="#bababa" fill-rule="evenodd" group-id="1,13" id="矩形备份" node-id="136" stroke="none" target-height="113.45001" target-width="32.929688" target-x="5335.18" target-y="566.45"></path><path d="M 5730.38 566.45 L 5763.31 566.45 L 5763.31 678.42 L 5730.38 679.90 Z" fill="#bababa" fill-rule="evenodd" group-id="1,13" id="矩形备份-52" node-id="137" stroke="none" target-height="113.45001" target-width="32.930176" target-x="5730.38" target-y="566.45"></path></g><g node-id="180"><path d="M 5912.99 572.36 L 5912.99 794.43 L 5899.82 910.05 L 5899.82 587.24 Z" fill="#868686" fill-rule="evenodd" group-id="1,14" id="矩形" node-id="139" stroke="none" target-height="337.69" target-width="13.17041" target-x="5899.82" target-y="572.36"></path><path d="M 5786.04 428.13 L 6191.44 428.13 L 6158.51 586.67 L 5757.86 586.67 Z" fill="#dde8f8" fill-rule="evenodd" group-id="1,14" id="矩形备份-9" node-id="140" stroke="none" target-height="158.53998" target-width="433.58008" target-x="5757.86" target-y="428.13"></path><path d="M 5908.23 672.52 L 6141.93 672.52 L 6127.62 729.75 L 5898.68 729.75 Z" fill="#e0e1e0" fill-rule="evenodd" group-id="1,14" id="矩形备份-11" node-id="141" stroke="none" target-height="57.22998" target-width="243.25" target-x="5898.68" target-y="672.52"></path><path d="M 5769.68 544.87 L 6175.09 544.87 L 6160.78 587.80 L 5760.13 587.80 Z" fill="#1ffe18" fill-rule="evenodd" group-id="1,14" id="矩形备份-10" node-id="142" stroke="none" target-height="42.929993" target-width="414.95996" target-x="5760.13" target-y="544.87"></path><path d="M 5782.86 479.01 L 6188.26 479.01 L 6173.95 521.93 L 5773.30 521.93 Z" fill="#ffffff" fill-rule="evenodd" group-id="1,14" id="矩形备份-15" node-id="143" stroke="none" target-height="42.919983" target-width="414.95996" target-x="5773.3" target-y="479.01"></path></g><g node-id="181"><path d="M 6044.07 589.75 L 6044.07 996.84 L 6565.20 997.08 L 6565.20 589.75 Z" fill="#252524" fill-rule="evenodd" group-id="1,15" id="路径-30" node-id="145" stroke="none" target-height="407.33002" target-width="521.1304" target-x="6044.07" target-y="589.75"></path><path d="M 6039.95 586.21 L 6044.07 846.17 L 6565.20 846.32 L 6560.29 586.21 Z" fill="#efefef" fill-rule="evenodd" group-id="1,15" id="路径-30" node-id="146" stroke="none" target-height="260.11" target-width="525.25" target-x="6039.95" target-y="586.21"></path><path d="M 6240.32 674.81 L 6240.32 889.07 L 6368.95 889.20 L 6368.95 674.81 Z" fill="#ddddd8" fill-rule="evenodd" group-id="1,15" id="路径-30" node-id="147" stroke="none" target-height="214.39001" target-width="128.63037" target-x="6240.32" target-y="674.81"></path><path d="M 6044.07 974.95 L 6044.07 1017.80 L 6565.20 1017.83 L 6565.20 974.95 Z" fill="#efefef" fill-rule="evenodd" group-id="1,15" id="路径-30" node-id="148" stroke="none" target-height="42.880005" target-width="521.1304" target-x="6044.07" target-y="974.95"></path><path d="M 6070.82 342.51 L 6586.64 342.51 L 6562.51 586.93 L 6039.95 589.05 Z" fill="#ffffff" fill-rule="evenodd" group-id="1,15" id="矩形" node-id="149" stroke="none" target-height="246.53998" target-width="546.68994" target-x="6039.95" target-y="342.51"></path><path d="M 6186.79 401.46 L 6455.91 401.46 L 6443.32 528.99 L 6170.68 530.10 Z" fill="#b4fdff" fill-opacity="0.43621784" fill-rule="evenodd" group-id="1,15" id="矩形" node-id="150" stroke="none" target-height="128.63998" target-width="285.22998" target-x="6170.68" target-y="401.46"></path><path d="M 6070.82 342.51 L 6093.55 342.51 L 6061.39 589.05 L 6039.95 589.05 Z" fill="#000000" fill-rule="evenodd" group-id="1,15" id="矩形" node-id="151" stroke="none" target-height="246.53998" target-width="53.59961" target-x="6039.95" target-y="342.51"></path><path d="M 6565.20 342.51 L 6586.64 342.51 L 6565.20 589.05 L 6543.76 589.05 Z" fill="#000000" fill-rule="evenodd" group-id="1,15" id="矩形备份-53" node-id="152" stroke="none" target-height="246.53998" target-width="42.88037" target-x="6543.76" target-y="342.51"></path><path d="M 6562.36 584.79 L 6586.64 342.51 L 6586.64 706.97 L 6565.20 846.32 Z" fill="#40403f" fill-rule="evenodd" group-id="1,15" id="矩形" node-id="153" stroke="none" target-height="503.81" target-width="24.280273" target-x="6562.36" target-y="342.51"></path></g><g node-id="182"><path d="M 6716.56 559.18 L 6716.56 781.26 L 6703.39 896.87 L 6703.39 574.06 Z" fill="#868686" fill-rule="evenodd" group-id="1,16" id="矩形" node-id="155" stroke="none" target-height="337.69" target-width="13.169922" target-x="6703.39" target-y="559.18"></path><path d="M 6589.61 414.96 L 6995.01 414.96 L 6962.08 573.49 L 6566.88 573.04 Z" fill="#dde8f8" fill-rule="evenodd" group-id="1,16" id="矩形备份-9" node-id="156" stroke="none" target-height="158.53" target-width="428.12988" target-x="6566.88" target-y="414.96"></path><path d="M 6711.80 659.35 L 6945.50 659.35 L 6931.19 716.58 L 6702.25 716.58 Z" fill="#e0e1e0" fill-rule="evenodd" group-id="1,16" id="矩形备份-11" node-id="157" stroke="none" target-height="57.23004" target-width="243.25" target-x="6702.25" target-y="659.35"></path><path d="M 6573.25 531.70 L 6978.66 531.70 L 6964.35 574.63 L 6566.88 573.04 Z" fill="#1ffe18" fill-rule="evenodd" group-id="1,16" id="矩形备份-10" node-id="158" stroke="none" target-height="42.929993" target-width="411.78027" target-x="6566.88" target-y="531.7"></path><path d="M 6586.43 465.83 L 6991.83 465.83 L 6977.52 508.76 L 6576.87 508.76 Z" fill="#ffffff" fill-rule="evenodd" group-id="1,16" id="矩形备份-15" node-id="159" stroke="none" target-height="42.930023" target-width="414.95996" target-x="6576.87" target-y="465.83"></path></g><g node-id="183"><path d="M 7074.05 388.61 L 7074.05 829.92 L 7060.88 948.48 L 7060.88 520.34 Z" fill="#707070" fill-rule="evenodd" group-id="1,17" id="矩形" node-id="161" stroke="none" target-height="559.87" target-width="13.169922" target-x="7060.88" target-y="388.61"></path><path d="M 6898.95 392.02 L 7074.04 390.99 L 7060.88 520.34 L 6883.49 523.66 Z" fill="#f3f3f3" fill-rule="evenodd" group-id="1,17" id="矩形" node-id="162" stroke="none" target-height="132.66998" target-width="190.5498" target-x="6883.49" target-y="390.99"></path><path d="M 6883.49 523.66 L 7060.88 520.28 L 7060.88 948.48 L 6883.49 949.57 Z" fill="#e2e2e2" fill-rule="evenodd" group-id="1,17" id="矩形备份" node-id="163" stroke="none" target-height="429.28998" target-width="177.38965" target-x="6883.49" target-y="520.28"></path></g></g></svg>